<?xml version="1.0" encoding="utf-8"?>
<svg xmlns="http://www.w3.org/2000/svg"
	xmlns:xlink="http://www.w3.org/1999/xlink"
	width="373px" height="263px" viewBox="0 0 373 263">
<path fillRule="evenodd" d="M 370.39 102.15C 370.39 102.15 328.34 29.47 328.34 29.47 328.34 29.47 330.94 27.98 330.94 27.98 330.94 27.98 372.99 100.65 372.99 100.65 372.99 100.65 370.39 102.15 370.39 102.15ZM 290.09 99.03C 290.09 99.03 328.16 99.03 328.16 99.03 328.16 99.03 328.16 137 328.16 137 328.16 137 290.09 137 290.09 137 290.09 137 290.09 99.03 290.09 99.03ZM 144.45 59.06C 130.36 59.06 118.94 47.66 118.94 33.59 118.94 19.53 130.36 8.13 144.45 8.13 158.55 8.13 169.97 19.53 169.97 33.59 169.97 47.66 158.55 59.06 144.45 59.06ZM 71.71 129.62C 71.71 129.62 113.9 171.73 113.9 171.73 113.9 171.73 56.27 187.15 56.27 187.15 56.27 187.15 71.71 129.62 71.71 129.62ZM 22.04 1.5C 22.04 1.5 24.64 0 24.64 0 24.64 0 66.68 72.68 66.68 72.68 66.68 72.68 64.08 74.18 64.08 74.18 64.08 74.18 22.04 1.5 22.04 1.5ZM 42.06 263C 42.06 263 0.01 190.32 0.01 190.32 0.01 190.32 2.61 188.82 2.61 188.82 2.61 188.82 44.66 261.5 44.66 261.5 44.66 261.5 42.06 263 42.06 263Z" fill="rgba(68, 10, 134, 0.9)"/></svg>